<svg fill="white" viewBox="0 0 64 64" width="150" xmlns="http://www.w3.org/2000/svg"><g id="Responsive-4" data-name="Responsive"><path d="m14 29h2v2h-2z"/><path d="m18 29h2v2h-2z"/><path d="m22 29h2v2h-2z"/><path d="m54 29h2v2h-2z"/><path d="m50 29h2v2h-2z"/><path d="m46 29h2v2h-2z"/><path d="m57 2h-50a5.006 5.006 0 0 0 -5 5v36a5.006 5.006 0 0 0 5 5h17v6h-10a4 4 0 0 0 0 8h36a4 4 0 0 0 4-4h3a5.006 5.006 0 0 0 5-5v-46a5.006 5.006 0 0 0 -5-5zm-53 41v-36a3 3 0 0 1 3-3h50a3 3 0 0 1 3 3v6.026a4.954 4.954 0 0 0 -2-.925v-5.101a1 1 0 0 0 -1-1h-50a1 1 0 0 0 -1 1v34a1 1 0 0 0 1 1h27v4h-27a3 3 0 0 1 -3-3zm52-31h-17a5.006 5.006 0 0 0 -5 5v4.059a9 9 0 0 0 0 17.882v1.059h-26v-32h48zm-21 25a6.957 6.957 0 0 1 -3.975-1.245 2.994 2.994 0 0 1 2.975-2.755h2a2.994 2.994 0 0 1 2.975 2.755 6.957 6.957 0 0 1 -3.975 1.245zm5.632-2.861a5 5 0 0 0 -4.632-3.139h-2a5 5 0 0 0 -4.632 3.139 7 7 0 1 1 11.264 0zm-4.632 4.802a9 9 0 0 0 0-17.882v-1.059h24v30h-24zm24-20.941h-24v-1a3 3 0 0 1 3-3h18a3 3 0 0 1 3 3zm-34 30h8v5a5 5 0 0 0 .1 1h-8.1zm25.413 11.413a1.983 1.983 0 0 1 -1.413.587h-36a2 2 0 0 1 0-4h21.026a4.977 4.977 0 0 0 3.974 2h13a1.983 1.983 0 0 1 -.587 1.413zm5.587-3.413h-18a3 3 0 0 1 -3-3v-1h24v1a3 3 0 0 1 -3 3z"/><path d="m49 15h4v2h-4z"/><path d="m45 15h2v2h-2z"/><path d="m46 53h4v2h-4z"/><path d="m38 28a3 3 0 1 0 -3 3 3 3 0 0 0 3-3zm-3 1a1 1 0 1 1 1-1 1 1 0 0 1 -1 1z"/><path d="m11 20h20a1 1 0 0 0 1-1v-8a1 1 0 0 0 -1-1h-20a1 1 0 0 0 -1 1v8a1 1 0 0 0 1 1zm1-8h18v6h-18z"/><path d="m57 40h-18a1 1 0 0 0 -1 1v6a1 1 0 0 0 1 1h18a1 1 0 0 0 1-1v-6a1 1 0 0 0 -1-1zm-1 6h-16v-4h16z"/><path d="m18 14h10v2h-10z"/><path d="m14 14h2v2h-2z"/><path d="m46 43h8v2h-8z"/><path d="m42 43h2v2h-2z"/></g></svg>