<svg fill="white" viewBox="0 0 64 64" width="150" xmlns="http://www.w3.org/2000/svg"><path d="m56 49v-34a1 1 0 0 0 -1-1h-46a1 1 0 0 0 -1 1v34a1 1 0 0 0 1 1h46a1 1 0 0 0 1-1zm-2-33v4h-44v-4zm-44 6h20v26h-20zm22 26v-26h22v26z"/><path d="m12 17h2v2h-2z"/><path d="m16 17h2v2h-2z"/><path d="m20 17h2v2h-2z"/><path d="m51 24h-16a1 1 0 0 0 -1 1v10a1 1 0 0 0 1 1h16a1 1 0 0 0 1-1v-10a1 1 0 0 0 -1-1zm-1 2v6.149l-2.219-2.774a1 1 0 0 0 -1.562 0l-2.119 2.649-3.29-4.605a1.035 1.035 0 0 0 -1.626 0l-3.184 4.461v-5.88zm-4.486 8-.2-.284 1.686-2.116 1.919 2.4zm-2.457 0h-6.114l3.057-4.279z"/><path d="m34 38h2v2h-2z"/><path d="m38 38h8v2h-8z"/><path d="m48 38h4v2h-4z"/><path d="m34 42h10v2h-10z"/><path d="m46 42h6v2h-6z"/><path d="m12 24h2v2h-2z"/><path d="m16 24h4v2h-4z"/><path d="m22 24h2v2h-2z"/><path d="m14 27h2v2h-2z"/><path d="m18 27h4v2h-4z"/><path d="m24 27h3v2h-3z"/><path d="m14 30h5v2h-5z"/><path d="m21 30h7v2h-7z"/><path d="m12 38h2v2h-2z"/><path d="m16 38h6v2h-6z"/><path d="m16 41h2v2h-2z"/><path d="m20 41h4v2h-4z"/><path d="m26 41h2v2h-2z"/><path d="m16 44h4v2h-4z"/><path d="m22 44h6v2h-6z"/><path d="m13 34h2v2h-2z"/><path d="m17 34h8v2h-8z"/><path d="m61 52h-1v-37a5.006 5.006 0 0 0 -5-5h-46a5.006 5.006 0 0 0 -5 5v37h-1a1 1 0 0 0 -1 1v4a5.006 5.006 0 0 0 5 5h50a5.006 5.006 0 0 0 5-5v-4a1 1 0 0 0 -1-1zm-55-37a3 3 0 0 1 3-3h46a3 3 0 0 1 3 3v37h-52zm21 39h10v1a1 1 0 0 1 -1 1h-8a1 1 0 0 1 -1-1zm33 3a3 3 0 0 1 -3 3h-50a3 3 0 0 1 -3-3v-3h21v1a3 3 0 0 0 3 3h8a3 3 0 0 0 3-3v-1h21z"/></svg>