<?xml version="1.0" encoding="UTF-8"?>
<svg width="65px" height="66px" viewBox="0 0 65 66" version="1.1" xmlns="http://www.w3.org/2000/svg" xmlns:xlink="http://www.w3.org/1999/xlink">
    <!-- Generator: Sketch 58 (84663) - https://sketch.com -->
    <title>010-linkedin</title>
    <desc>Created with Sketch.</desc>
    <defs>
        <ellipse id="path-1" cx="32.5" cy="33" rx="32.5" ry="33"></ellipse>
    </defs>
    <g id="Page-1" stroke="none" stroke-width="1" fill="none" fill-rule="evenodd">
        <g id="Mobile" transform="translate(-16.000000, -527.000000)">
            <g id="010-linkedin" transform="translate(16.000000, 527.000000)">
                <mask id="mask-2" fill="white">
                    <use xlink:href="#path-1"></use>
                </mask>
                <use id="Mask" fill="#FFFFFF" xlink:href="#path-1"></use>
                <g mask="url(#mask-2)" fill="#000000" fill-rule="nonzero" id="Shape">
                    <path d="M32.5,0 C14.5534897,0 0,14.7773896 0,33 C0,51.2226104 14.5534897,66 32.5,66 C50.4465103,66 65,51.2226104 65,33 C65,14.7773896 50.4465103,0 32.5,0 Z M23.0558777,49.8867188 L15.1406479,49.8867188 L15.1406479,25.7072296 L23.0558777,25.7072296 L23.0558777,49.8867188 Z M19.0985107,22.4055176 L19.046936,22.4055176 C16.3908386,22.4055176 14.6730042,20.5489654 14.6730042,18.2286529 C14.6730042,15.8559723 16.4434052,14.0507812 19.1510772,14.0507812 C21.8587495,14.0507812 23.5250092,15.8559723 23.5765839,18.2286529 C23.5765839,20.5489654 21.8587495,22.4055176 19.0985107,22.4055176 Z M51.5965271,49.8867188 L43.6822891,49.8867188 L43.6822891,36.9512787 C43.6822891,33.7004242 42.5362397,31.4833374 39.6723557,31.4833374 C37.4858857,31.4833374 36.1836243,32.9788514 35.6113433,34.4225006 C35.4020691,34.9391327 35.3509903,35.6612091 35.3509903,36.3837891 L35.3509903,49.8867188 L27.4362564,49.8867188 C27.4362564,49.8867188 27.5399018,27.9756776 27.4362564,25.7072296 L35.3509903,25.7072296 L35.3509903,29.1307983 C36.4028168,27.4832153 38.2847976,25.1397401 42.484169,25.1397401 C47.6917266,25.1397401 51.5965271,28.5955352 51.5965271,36.0222473 L51.5965271,49.8867188 Z"></path>
                </g>
            </g>
        </g>
    </g>
</svg>