<?xml version="1.0" encoding="UTF-8"?>
<svg width="65px" height="66px" viewBox="0 0 65 66" version="1.1" xmlns="http://www.w3.org/2000/svg" xmlns:xlink="http://www.w3.org/1999/xlink">
    <!-- Generator: Sketch 58 (84663) - https://sketch.com -->
    <title>003-whatsapp</title>
    <desc>Created with Sketch.</desc>
    <defs>
        <ellipse id="path-1" cx="32.5" cy="33" rx="32.5" ry="33"></ellipse>
    </defs>
    <g id="Page-1" stroke="none" stroke-width="1" fill="none" fill-rule="evenodd">
        <g id="Mobile" transform="translate(-16.000000, -454.000000)">
            <g id="003-whatsapp" transform="translate(16.000000, 454.000000)">
                <mask id="mask-2" fill="white">
                    <use xlink:href="#path-1"></use>
                </mask>
                <use id="Mask" fill="#FFFFFF" xlink:href="#path-1"></use>
                <g mask="url(#mask-2)" fill="#000000" fill-rule="nonzero" id="Shape">
                    <path d="M32.5,0 C14.5534897,0 0,14.7773896 0,33 C0,51.2226104 14.5534897,66 32.5,66 C50.4465103,66 65,51.2226104 65,33 C65,14.7773896 50.4465103,0 32.5,0 Z M33.1888199,52.2135772 C33.188324,52.2135772 33.1893159,52.2135772 33.1888199,52.2135772 L33.1808853,52.2135772 C29.9252319,52.2120666 26.7261123,51.3832397 23.8850403,49.8101807 L13.5735703,52.5559845 L16.333313,42.3240509 C14.6308518,39.3300019 13.7352371,35.9331207 13.7367249,32.4531555 C13.741188,21.5666199 22.4672317,12.7098541 33.1888199,12.7098541 C38.3919143,12.7118683 43.2761382,14.7683258 46.9483567,18.500061 C50.6210708,22.2322998 52.6424026,27.1931763 52.6404204,32.4687652 C52.6359558,43.3558045 43.9089204,52.2135772 33.1888199,52.2135772 Z"></path>
                    <path d="M33.0068678,16 C24.1813996,16 17.0039278,23.6227035 17.0000009,32.9927 C16.9990202,36.2036316 17.8451031,39.3306137 19.4464768,42.0362849 L19.8268213,42.6792013 L18.2102339,48.9503726 L24.2658116,47.2630432 L24.8503155,47.6311689 C27.3066058,49.1797993 30.1226285,49.9989571 32.9936172,50 L33.0000009,50 C41.8185946,50 48.9960664,42.376775 49.0000009,33.0062571 C49.0014648,28.4651718 47.3387452,24.1957489 44.3180725,20.9837746 C41.2973998,17.7718002 37.2799787,16.0015643 33.0068678,16 L33.0068678,16 Z M42.4178215,40.2988988 C42.0168646,41.4919178 40.0955108,42.5811734 39.1713959,42.7282151 C38.3424899,42.8596141 37.2942109,42.9143636 36.1418894,42.5259025 C35.4430368,42.2902186 34.5473864,41.9757997 33.3994817,41.4496825 C28.5747485,39.2367573 25.4235317,34.0767414 25.1830557,33.7357299 C24.9425796,33.3947182 23.2190049,30.9654019 23.2190049,28.4505721 C23.2190049,25.9362635 24.4616278,24.6999662 24.9023368,24.1889703 C25.3435366,23.677453 25.8647314,23.549704 26.1852025,23.549704 C26.5056735,23.549704 26.8266353,23.5528325 27.1068635,23.5674324 C27.4023054,23.5830752 27.7988454,23.4480262 28.1890053,24.4444683 C28.5899622,25.4675029 29.5518661,27.9818115 29.6721041,28.2373094 C29.7923421,28.4933288 29.8723372,28.7915836 29.712347,29.1325951 C29.5518661,29.4736067 29.0188928,30.2093366 28.5099672,30.8798883 C28.2964834,31.1609361 28.0182183,31.4112198 28.2989372,31.9227371 C28.5791653,32.433733 29.5449954,34.1069841 30.9746005,35.4616446 C32.8120332,37.2021593 34.3618764,37.7413121 34.8428284,37.9973315 C35.3232895,38.2528294 35.6040085,38.2100727 35.8847272,37.8695826 C36.1649554,37.5285709 37.0871072,36.3777872 37.4075782,35.8662699 C37.7280493,35.3547526 38.0490111,35.4402662 38.4897202,35.6107719 C38.9309199,35.7807563 41.2954368,37.0170536 41.7763887,37.2725515 C42.2573407,37.5285709 42.5778117,37.6563199 42.6980496,37.8695826 C42.8187785,38.0828451 42.8187785,39.1053584 42.4178215,40.2988988 L42.4178215,40.2988988 Z"></path>
                </g>
            </g>
        </g>
    </g>
</svg>