<svg height="512" viewBox="0 0 64 64" width="512" xmlns="http://www.w3.org/2000/svg"><path d="m14 53h4v2h-4z"/><path d="m47.832 8.445a1 1 0 0 0 -1.387-.277l-3 2a1 1 0 0 0 0 1.664l3 2a1 1 0 1 0 1.11-1.664l-1.755-1.168 1.752-1.168a1 1 0 0 0 .28-1.387z"/><path d="m58.555 10.168-3-2a1 1 0 0 0 -1.11 1.664l1.755 1.168-1.752 1.168a1 1 0 0 0 1.11 1.664l3-2a1 1 0 0 0 0-1.664z"/><path d="m52.316 7.051a1 1 0 0 0 -1.264.633l-2 6a1 1 0 1 0 1.9.632l2-6a1 1 0 0 0 -.636-1.265z"/><path d="m47.832 29.445a1 1 0 0 0 -1.387-.277l-3 2a1 1 0 0 0 0 1.664l3 2a1 1 0 1 0 1.11-1.664l-1.755-1.168 1.752-1.168a1 1 0 0 0 .28-1.387z"/><path d="m58.555 31.168-3-2a1 1 0 0 0 -1.11 1.664l1.755 1.168-1.752 1.168a1 1 0 0 0 1.11 1.664l3-2a1 1 0 0 0 0-1.664z"/><path d="m52.316 28.051a1 1 0 0 0 -1.264.633l-2 6a1 1 0 1 0 1.9.632l2-6a1 1 0 0 0 -.636-1.265z"/><path d="m17 9h4v2h-4z"/><path d="m13 9h2v2h-2z"/><path d="m6 41h10v2h-10z"/><path d="m6 45h10v2h-10z"/><path d="m43 18h16a3 3 0 0 0 3-3v-8a3 3 0 0 0 -3-3h-16a3 3 0 0 0 -3 3v3h-3a3 3 0 0 0 -3 3v4a1 1 0 0 1 -1 1h-3v-7a5.006 5.006 0 0 0 -5-5h-18a5.006 5.006 0 0 0 -5 5v42a5.006 5.006 0 0 0 5 5h18a5.006 5.006 0 0 0 5-5v-8h3a1 1 0 0 1 1 1v5a3 3 0 0 0 3 3h3v3a3 3 0 0 0 3 3h16a3 3 0 0 0 3-3v-8a3 3 0 0 0 -3-3h-16a3 3 0 0 0 -3 3v3h-3a1 1 0 0 1 -1-1v-5a3 3 0 0 0 -3-3h-3v-10h10v3a3 3 0 0 0 3 3h16a3 3 0 0 0 3-3v-8a3 3 0 0 0 -3-3h-16a3 3 0 0 0 -3 3v3h-10v-11h3a3 3 0 0 0 3-3v-4a1 1 0 0 1 1-1h3v3a3 3 0 0 0 3 3zm-1-11a1 1 0 0 1 1-1h16a1 1 0 0 1 1 1v8a1 1 0 0 1 -1 1h-16a1 1 0 0 1 -1-1zm0 42a1 1 0 0 1 1-1h16a1 1 0 0 1 1 1v8a1 1 0 0 1 -1 1h-16a1 1 0 0 1 -1-1zm0-21a1 1 0 0 1 1-1h16a1 1 0 0 1 1 1v8a1 1 0 0 1 -1 1h-16a1 1 0 0 1 -1-1zm-35-20h18a3 3 0 0 1 3 3v1h-24v-1a3 3 0 0 1 3-3zm18 48h-18a3 3 0 0 1 -3-3v-1h24v1a3 3 0 0 1 -3 3zm3-25h-2v-6a1 1 0 0 0 -1-1h-18a1 1 0 0 0 -1 1v12a1 1 0 0 0 1 1h18a1 1 0 0 0 1-1v-4h2v10h-2v-2a1 1 0 0 0 -1-1h-6a1 1 0 0 0 -1 1v6a1 1 0 0 0 1 1h6a1 1 0 0 0 1-1v-2h2v5h-24v-36h24v4h-2v-1a1 1 0 0 0 -1-1h-18a1 1 0 0 0 -1 1v4a1 1 0 0 0 1 1h18a1 1 0 0 0 1-1v-1h2zm-15.37-1.045-4.63 4.631v-7.718zm-2.33-3.955h11.4l-5.7 3.8zm4.024 5.087 1.118.745a1 1 0 0 0 1.11 0l1.118-.745 4.916 4.913h-13.172zm5.043-1.132 4.633-3.087v7.718zm4.633 16.045h-4v-4h4zm0-26h-16v-2h16z"/><path d="m47.832 50.445a1 1 0 0 0 -1.387-.277l-3 2a1 1 0 0 0 0 1.664l3 2a1 1 0 0 0 1.11-1.664l-1.755-1.168 1.752-1.168a1 1 0 0 0 .28-1.387z"/><path d="m58.555 52.168-3-2a1 1 0 0 0 -1.11 1.664l1.755 1.168-1.752 1.168a1 1 0 0 0 1.11 1.664l3-2a1 1 0 0 0 0-1.664z"/><path d="m52.316 49.051a1 1 0 0 0 -1.264.633l-2 6a1 1 0 1 0 1.9.632l2-6a1 1 0 0 0 -.636-1.265z"/></svg>