<?xml version="1.0"?>
<svg xmlns="http://www.w3.org/2000/svg" viewBox="0 0 64 64" width="512" height="512"><g id="Color_chart" data-name="Color chart"><path d="M61,44H32.724L52.717,24.007a1,1,0,0,0,0-1.414l-11.31-11.31a1,1,0,0,0-1.414,0L20,31.27V3a1,1,0,0,0-1-1H3A1,1,0,0,0,2,3V53a9.01,9.01,0,0,0,9,9H61a1,1,0,0,0,1-1V45A1,1,0,0,0,61,44ZM40.7,13.4l9.9,9.9L29.9,44H27.4a.978.978,0,0,0-.131-.2l-7.07-7.07a1.029,1.029,0,0,0-1.414,0L11.516,44H11a9.147,9.147,0,0,0-.957.052ZM24.635,44H14.344l5.146-5.146ZM7,44.266V37h7.269ZM4,4H18V33.27l-1.776,1.775A.989.989,0,0,0,16,35H6a1,1,0,0,0-1,1V46.311a9.062,9.062,0,0,0-1,1.045ZM60,60H11a7,7,0,0,1,0-14H60Z"/><path d="M7,53a3,3,0,1,0,3-3A3,3,0,0,0,7,53Zm4,0a1,1,0,1,1-1-1A1,1,0,0,1,11,53Z"/><path d="M46,59H58a1,1,0,0,0,1-1V48a1,1,0,0,0-1-1H46a1,1,0,0,0-1,1V58A1,1,0,0,0,46,59Zm1-10H57v8H47Z"/><path d="M31,59H43a1,1,0,0,0,1-1V48a1,1,0,0,0-1-1H31a1,1,0,0,0-1,1V58A1,1,0,0,0,31,59Zm1-10H42v8H32Z"/><path d="M16,59H28a1,1,0,0,0,1-1V48a1,1,0,0,0-1-1H16a1,1,0,0,0-1,1V58A1,1,0,0,0,16,59Zm1-10H27v8H17Z"/><path d="M6,19H16a1,1,0,0,0,1-1V6a1,1,0,0,0-1-1H6A1,1,0,0,0,5,6V18A1,1,0,0,0,6,19ZM7,7h8V17H7Z"/><path d="M6,34H16a1,1,0,0,0,1-1V21a1,1,0,0,0-1-1H6a1,1,0,0,0-1,1V33A1,1,0,0,0,6,34ZM7,22h8V32H7Z"/><path d="M38.577,32.494a1,1,0,0,0,1.414,0l8.486-8.485a1,1,0,0,0,0-1.414l-7.072-7.072a1,1,0,0,0-1.414,0l-8.485,8.486a1,1,0,0,0,0,1.414ZM40.7,17.645,46.355,23.3l-7.071,7.071-5.657-5.657Z"/><path d="M27.971,43.1a1,1,0,0,0,1.414,0l8.485-8.486a1,1,0,0,0,0-1.414L30.8,26.13a1,1,0,0,0-1.414,0L20.9,34.615a1,1,0,0,0,0,1.414Zm2.121-14.85,5.657,5.657-7.071,7.071-5.657-5.657Z"/></g></svg>
