<svg height="512" viewBox="0 0 64 64" width="512" xmlns="http://www.w3.org/2000/svg"><g id="Color_guide" data-name="Color guide"><path d="m5 42h2v2h-2z"/><path d="m5 37h2v3h-2z"/><path d="m57 37h2v6h-2z"/><path d="m21 36a3 3 0 1 1 3-3 3 3 0 0 1 -3 3zm0-4a1 1 0 1 0 1 1 1 1 0 0 0 -1-1z"/><path d="m32 54a4 4 0 1 1 4-4 4 4 0 0 1 -4 4zm0-6a2 2 0 1 0 2 2 2 2 0 0 0 -2-2z"/><path d="m27 56h10v2h-10z"/><path d="m46 54a4 4 0 1 1 4-4 4 4 0 0 1 -4 4zm0-6a2 2 0 1 0 2 2 2 2 0 0 0 -2-2z"/><path d="m41 56h10v2h-10z"/><path d="m18 54a4 4 0 1 1 4-4 4 4 0 0 1 -4 4zm0-6a2 2 0 1 0 2 2 2 2 0 0 0 -2-2z"/><path d="m13 56h10v2h-10z"/><path d="m27 42h10v2h-10z"/><path d="m41 42h10v2h-10z"/><path d="m13 42h10v2h-10z"/><path d="m57 20h-13.1l3.265-3.263a1 1 0 0 0 0-1.414l-8.49-8.49a1.029 1.029 0 0 0 -1.414 0l-9.261 9.267v-13.1a1 1 0 0 0 -1-1h-12a1 1 0 0 0 -1 1v17h-7a5.006 5.006 0 0 0 -5 5v32a5.006 5.006 0 0 0 5 5h50a5.006 5.006 0 0 0 5-5v-32a5.006 5.006 0 0 0 -5-5zm-19.03-11.045 7.076 7.074-4.246 4.244-7.074-7.073zm-5.657 5.659 7.071 7.072-4.244 4.24-7.068-7.069zm3.687 13.386h6v10h-6zm-3.614-2h-11.386c-.024 0-.047 0-.072 0l5.73-5.732zm1.614 2v10h-6v-10zm-18-24h10v6h-10zm0 8h10v6h-10zm0 8h8.1l-8.047 8.051c-.019.019-.036.04-.055.06zm1.464 9.468.006-.007a4.987 4.987 0 0 1 3.53-1.461h5v10h-5a5 5 0 0 1 -3.536-8.532zm-13.464 27.532v-32a3 3 0 0 1 3-3h1v38h-1a3 3 0 0 1 -3-3zm50 3h-44v-38h4v11a7.008 7.008 0 0 0 7 7h30a1 1 0 0 0 1-1v-12a1 1 0 0 0 -1-1h-13.1l4-4h12.1zm-10-22v-10h6v10zm16 19a3 3 0 0 1 -3 3h-1v-38h1a3 3 0 0 1 3 3z"/></g></svg>