<svg height="512" viewBox="0 0 64 64" width="512" xmlns="http://www.w3.org/2000/svg"><path d="m57 2h-50a5.006 5.006 0 0 0 -5 5v50a5.006 5.006 0 0 0 5 5h50a5.006 5.006 0 0 0 5-5v-50a5.006 5.006 0 0 0 -5-5zm-50 2h50a3 3 0 0 1 3 3v3h-56v-3a3 3 0 0 1 3-3zm50 56h-50a3 3 0 0 1 -3-3v-45h56v45a3 3 0 0 1 -3 3z"/><path d="m6 6h2v2h-2z"/><path d="m10 6h2v2h-2z"/><path d="m14 6h2v2h-2z"/><path d="m57 14h-23a1 1 0 0 0 -1 1v17h-2v-17a1 1 0 0 0 -1-1h-23a1 1 0 0 0 -1 1v42a1 1 0 0 0 1 1h23a1 1 0 0 0 1-1v-17h2v17a1 1 0 0 0 1 1h23a1 1 0 0 0 1-1v-42a1 1 0 0 0 -1-1zm-19 24h-12a1 1 0 0 0 -1 1v1.8l-5.481-4.8 5.481-4.8v1.8a1 1 0 0 0 1 1h12a1 1 0 0 0 1-1v-1.8l5.481 4.8-5.481 4.8v-1.8a1 1 0 0 0 -1-1zm-9 18h-21v-40h21v16h-2v-3a1 1 0 0 0 -1.658-.752l-8 7a1 1 0 0 0 0 1.5l8 7a1 1 0 0 0 1.658-.748v-3h2zm27 0h-21v-16h2v3a1 1 0 0 0 1.658.752l8-7a1 1 0 0 0 0-1.5l-8-7a1 1 0 0 0 -1.658.748v3h-2v-16h21z"/><path d="m53 50h-14a1 1 0 0 0 0 2h14a1 1 0 0 0 0-2z"/><path d="m53 44h-10a1 1 0 0 0 0 2h10a1 1 0 0 0 0-2z"/><path d="m53 38h-5a1 1 0 0 0 0 2h5a1 1 0 0 0 0-2z"/><path d="m53 32h-5a1 1 0 0 0 0 2h5a1 1 0 0 0 0-2z"/><path d="m53 26h-10a1 1 0 0 0 0 2h10a1 1 0 0 0 0-2z"/><path d="m38 22h15a1 1 0 0 0 0-2h-15a1 1 0 0 0 0 2z"/><path d="m26 50h-15a1 1 0 0 0 0 2h15a1 1 0 0 0 0-2z"/><path d="m11 46h10a1 1 0 0 0 0-2h-10a1 1 0 0 0 0 2z"/><path d="m11 40h5a1 1 0 0 0 0-2h-5a1 1 0 0 0 0 2z"/><path d="m11 34h5a1 1 0 0 0 0-2h-5a1 1 0 0 0 0 2z"/><path d="m11 28h10a1 1 0 0 0 0-2h-10a1 1 0 0 0 0 2z"/><path d="m11 22h15a1 1 0 0 0 0-2h-15a1 1 0 0 0 0 2z"/></svg>