<svg height="512" viewBox="0 0 64 64" width="512" xmlns="http://www.w3.org/2000/svg"><path d="m57 20h-5v-17a1 1 0 0 0 -1-1h-38a1 1 0 0 0 -1 1v17h-5a5.006 5.006 0 0 0 -5 5v32a5.006 5.006 0 0 0 5 5h50a5.006 5.006 0 0 0 5-5v-32a5.006 5.006 0 0 0 -5-5zm-43-16h36v52h-36zm-1 54h38a1 1 0 0 0 1-1v-35h2v38h-44v-38h2v35a1 1 0 0 0 1 1zm-9-1v-32a3 3 0 0 1 3-3h1v38h-1a3 3 0 0 1 -3-3zm56 0a3 3 0 0 1 -3 3h-1v-38h1a3 3 0 0 1 3 3z"/><path d="m5 42h2v2h-2z"/><path d="m5 37h2v3h-2z"/><path d="m57 37h2v6h-2z"/><path d="m45 8h-4a1 1 0 0 0 -1 1v1h-16v-1a1 1 0 0 0 -1-1h-4a1 1 0 0 0 -1 1v4a1 1 0 0 0 1 1h1v10h-1a1 1 0 0 0 -1 1v4a1 1 0 0 0 1 1h4a1 1 0 0 0 1-1v-1h16v1a1 1 0 0 0 1 1h4a1 1 0 0 0 1-1v-4a1 1 0 0 0 -1-1h-1v-10h1a1 1 0 0 0 1-1v-4a1 1 0 0 0 -1-1zm-25 2h2v2h-2zm2 18h-2v-2h2zm22 0h-2v-2h2zm-2-4h-1a1 1 0 0 0 -1 1v1h-16v-1a1 1 0 0 0 -1-1h-1v-10h1a1 1 0 0 0 1-1v-1h16v1a1 1 0 0 0 1 1h1zm2-12h-2v-2h2z"/><path d="m38.832 14.445a1 1 0 0 0 -1.387-.277l-5.445 3.632-5.445-3.63a1 1 0 0 0 -1.11 1.664l4.755 3.166-4.752 3.168a1 1 0 0 0 1.11 1.664l5.442-3.632 5.445 3.63a1 1 0 1 0 1.11-1.664l-4.755-3.166 4.752-3.168a1 1 0 0 0 .28-1.387z"/><path d="m43 36h-23a1 1 0 0 0 0 2h23a1 1 0 0 0 0-2z"/><path d="m43 40h-23a1 1 0 0 0 0 2h23a1 1 0 0 0 0-2z"/><path d="m43 44h-23a1 1 0 0 0 0 2h23a1 1 0 0 0 0-2z"/><path d="m43 48h-23a1 1 0 0 0 0 2h23a1 1 0 0 0 0-2z"/></svg>