<?xml version="1.0"?>
<svg xmlns="http://www.w3.org/2000/svg" viewBox="0 0 64 64" width="512" height="512"><g id="Diagram"><path d="M61,44H60V9a3,3,0,0,0-3-3H36a4,4,0,0,0-8,0H7A3,3,0,0,0,4,9V44H3a1,1,0,0,0-1,1v4a1,1,0,0,0,1,1H19.382L14.105,60.553A1,1,0,0,0,15,62h6a1,1,0,0,0,.895-.553L24.118,57H40.882l2.223,4.447A1,1,0,0,0,44,62h6a1,1,0,0,0,.9-1.447L45.618,50H61a1,1,0,0,0,1-1V45A1,1,0,0,0,61,44ZM32,4a2,2,0,0,1,2,2H30A2,2,0,0,1,32,4ZM6,9A1,1,0,0,1,7,8H57a1,1,0,0,1,1,1V44H6ZM20.382,60H16.618l5-10h3.764Zm17-10,1,2H26.618l1-2ZM25.118,55l.5-1H39.382l.5,1Zm23.264,5H44.618l-5-10h3.764ZM60,48H4V46H60Z"/><path d="M33,18.341V16h3a3,3,0,0,0,0-6H28a3,3,0,0,0,0,6h3v2.341L24.8,21H10V32h5v1a1,1,0,0,0,1,1H26a1,1,0,0,0,1-1V32h4v4H28a3,3,0,0,0,0,6h8a3,3,0,0,0,0-6H33V32h4v1a1,1,0,0,0,1,1H48a1,1,0,0,0,1-1V32h5V21h-14.8ZM27,13a1,1,0,0,1,1-1h8a1,1,0,0,1,0,2H28A1,1,0,0,1,27,13Zm9,25a1,1,0,0,1,0,2H28a1,1,0,0,1,0-2ZM32,20.088,36.461,22,32,23.912,27.539,22ZM25,32H17V30h8Zm14,0V30h8v2Zm13-2H49V29a1,1,0,0,0-1-1H38a1,1,0,0,0-1,1v1H27V29a1,1,0,0,0-1-1H16a1,1,0,0,0-1,1v1H12V23H24.8l6.811,2.919a1,1,0,0,0,.788,0L39.205,23H52Z"/></g></svg>
