<?xml version="1.0"?>
<svg xmlns="http://www.w3.org/2000/svg" viewBox="0 0 64 64" width="512" height="512"><g id="Diagram-2" data-name="Diagram"><path d="M36.394,25.081,30,22.341V20h3a3,3,0,0,0,0-6H25a3,3,0,0,0,0,6h3v2.341L21.8,25H16V44h8v1a1,1,0,0,0,1,1h3v2H25a3,3,0,0,0,0,6h8a3,3,0,0,0,0-6H30V46h3a1,1,0,0,0,1-1V41a1,1,0,0,0-1-1H30V38h5a1,1,0,0,0,1-1V33a1,1,0,0,0-1-1H30V29.659l6.394-2.74a1,1,0,0,0,0-1.838ZM24,17a1,1,0,0,1,1-1h8a1,1,0,0,1,0,2H25A1,1,0,0,1,24,17Zm9,33a1,1,0,0,1,0,2H25a1,1,0,0,1,0-2Zm-1-8v2H26V42Zm2-6H24V34H34ZM23,32a1,1,0,0,0-1,1v4a1,1,0,0,0,1,1h5v2H25a1,1,0,0,0-1,1v1H18V27h3.8L28,29.659V32Zm6-4.088L24.539,26,29,24.088,33.461,26Z"/><path d="M58,10a4,4,0,0,0-4,4V55a1,1,0,0,0,.1.447l3,6a1,1,0,0,0,1.79,0l3-6A1,1,0,0,0,62,55V14A4,4,0,0,0,58,10ZM56,22h1V51.586l-1,1Zm2,36.764L56.217,55.2,58,53.414,59.783,55.2Zm2-6.178-1-1V22h1ZM60,20H56V18h4Zm-4-4V14a2,2,0,0,1,4,0v2Z"/><path d="M51,4H48V3a1,1,0,0,0-2,0V4H44V3a1,1,0,0,0-2,0V4H40V3a1,1,0,0,0-2,0V4H36V3a1,1,0,0,0-2,0V4H32V3a1,1,0,0,0-2,0V4H28V3a1,1,0,0,0-2,0V4H24V3a1,1,0,0,0-2,0V4H20V3a1,1,0,0,0-2,0V4H16V3a1,1,0,0,0-2,0V4H12V3a1,1,0,0,0-2,0V4H7A1,1,0,0,0,6,5V8H3A1,1,0,0,0,2,9V61a1,1,0,0,0,1,1H45a1,1,0,0,0,1-1V58h5a1,1,0,0,0,1-1V5A1,1,0,0,0,51,4ZM8,6h2V7a1,1,0,0,0,2,0V6h2V7a1,1,0,0,0,2,0V6h2V7a1,1,0,0,0,2,0V6h2V7a1,1,0,0,0,2,0V6h2V7a1,1,0,0,0,2,0V6h2V7a1,1,0,0,0,2,0V6h2V7a1,1,0,0,0,2,0V6h2V7a1,1,0,0,0,2,0V6h2V7a1,1,0,0,0,2,0V6h2V7a1,1,0,0,0,2,0V6h2v4H8ZM44,60H4V10H6V57a1,1,0,0,0,1,1H44Zm6-4H8V12H50Z"/></g></svg>
