<?xml version="1.0"?>
<svg xmlns="http://www.w3.org/2000/svg" viewBox="0 0 64 64" width="512" height="512"><g id="Keyboard"><path d="M42,31H22a1,1,0,0,1,0-2H42a1,1,0,0,1,0,2Z"/><path d="M42,26H22a1,1,0,0,1-1-1V22a1,1,0,0,1,1-1H42a1,1,0,0,1,1,1v3A1,1,0,0,1,42,26ZM23,24H41V23H23Z"/><path d="M49,26H46a1,1,0,0,1-1-1V22a1,1,0,0,1,1-1h3a1,1,0,0,1,1,1v3A1,1,0,0,1,49,26Zm-2-2h1V23H47Z"/><path d="M56,26H53a1,1,0,0,1-1-1V22a1,1,0,0,1,1-1h3a1,1,0,0,1,1,1v3A1,1,0,0,1,56,26Zm-2-2h1V23H54Z"/><path d="M18,26H15a1,1,0,0,1-1-1V22a1,1,0,0,1,1-1h3a1,1,0,0,1,1,1v3A1,1,0,0,1,18,26Zm-2-2h1V23H16Z"/><path d="M11,26H8a1,1,0,0,1-1-1V22a1,1,0,0,1,1-1h3a1,1,0,0,1,1,1v3A1,1,0,0,1,11,26ZM9,24h1V23H9Z"/><path d="M48,19H45a1,1,0,0,1-1-1V15a1,1,0,0,1,1-1h3a1,1,0,0,1,1,1v3A1,1,0,0,1,48,19Zm-2-2h1V16H46Z"/><path d="M55,19H52a1,1,0,0,1-1-1V15a1,1,0,0,1,1-1h3a1,1,0,0,1,1,1v3A1,1,0,0,1,55,19Zm-2-2h1V16H53Z"/><path d="M34,19H31a1,1,0,0,1-1-1V15a1,1,0,0,1,1-1h3a1,1,0,0,1,1,1v3A1,1,0,0,1,34,19Zm-2-2h1V16H32Z"/><path d="M41,19H38a1,1,0,0,1-1-1V15a1,1,0,0,1,1-1h3a1,1,0,0,1,1,1v3A1,1,0,0,1,41,19Zm-2-2h1V16H39Z"/><path d="M13,19H10a1,1,0,0,1-1-1V15a1,1,0,0,1,1-1h3a1,1,0,0,1,1,1v3A1,1,0,0,1,13,19Zm-2-2h1V16H11Z"/><path d="M27,19H24a1,1,0,0,1-1-1V15a1,1,0,0,1,1-1h3a1,1,0,0,1,1,1v3A1,1,0,0,1,27,19Zm-2-2h1V16H25Z"/><path d="M20,19H17a1,1,0,0,1-1-1V15a1,1,0,0,1,1-1h3a1,1,0,0,1,1,1v3A1,1,0,0,1,20,19Zm-2-2h1V16H18Z"/><path d="M48,12H45a1,1,0,0,1-1-1V8a1,1,0,0,1,1-1h3a1,1,0,0,1,1,1v3A1,1,0,0,1,48,12Zm-2-2h1V9H46Z"/><path d="M55,12H52a1,1,0,0,1-1-1V8a1,1,0,0,1,1-1h3a1,1,0,0,1,1,1v3A1,1,0,0,1,55,12Zm-2-2h1V9H53Z"/><path d="M34,12H31a1,1,0,0,1-1-1V8a1,1,0,0,1,1-1h3a1,1,0,0,1,1,1v3A1,1,0,0,1,34,12Zm-2-2h1V9H32Z"/><path d="M41,12H38a1,1,0,0,1-1-1V8a1,1,0,0,1,1-1h3a1,1,0,0,1,1,1v3A1,1,0,0,1,41,12Zm-2-2h1V9H39Z"/><path d="M13,12H10a1,1,0,0,1-1-1V8a1,1,0,0,1,1-1h3a1,1,0,0,1,1,1v3A1,1,0,0,1,13,12Zm-2-2h1V9H11Z"/><path d="M27,12H24a1,1,0,0,1-1-1V8a1,1,0,0,1,1-1h3a1,1,0,0,1,1,1v3A1,1,0,0,1,27,12Zm-2-2h1V9H25Z"/><path d="M20,12H17a1,1,0,0,1-1-1V8a1,1,0,0,1,1-1h3a1,1,0,0,1,1,1v3A1,1,0,0,1,20,12Zm-2-2h1V9H18Z"/><path d="M21.261,38.011A3.043,3.043,0,0,0,20,38.17V33.112a3.077,3.077,0,0,0-2.739-3.1,3.026,3.026,0,0,0-1.388.207,3.034,3.034,0,0,0-2.612-2.207,3.027,3.027,0,0,0-3.157,2.2,3.063,3.063,0,0,0-3.212.664A2.944,2.944,0,0,0,6,33v1.171a3.058,3.058,0,0,0-3.108.7A2.944,2.944,0,0,0,2,37V51.343a4.966,4.966,0,0,0,1.464,3.535l.658.658A3.02,3.02,0,0,1,5,57.657V61a1,1,0,0,0,1,1H20a1,1,0,0,0,1-1V57.657a3.02,3.02,0,0,1,.878-2.121l.658-.658A4.966,4.966,0,0,0,24,51.343V41.112A3.077,3.077,0,0,0,21.261,38.011ZM22,51.343a3.02,3.02,0,0,1-.878,2.121l-.658.658A4.966,4.966,0,0,0,19,57.657V60H7V57.657a4.966,4.966,0,0,0-1.464-3.535l-.658-.658A3.02,3.02,0,0,1,4,51.343V37a.974.974,0,0,1,.306-.712A.957.957,0,0,1,5,36a1,1,0,0,1,1,1v6a1,1,0,0,0,2,0V33a.974.974,0,0,1,.306-.712A.957.957,0,0,1,9,32a1,1,0,0,1,1,1V43a1,1,0,0,0,2,0V31a.974.974,0,0,1,.306-.712A.938.938,0,0,1,13.092,30,1.082,1.082,0,0,1,14,31.112V43a1,1,0,0,0,2,0V33a.974.974,0,0,1,.306-.712A.953.953,0,0,1,17.092,32,1.082,1.082,0,0,1,18,33.112V49a1,1,0,0,0,2,0V41a.974.974,0,0,1,.306-.712A.943.943,0,0,1,21.092,40,1.082,1.082,0,0,1,22,41.112Z"/><path d="M58,34.171V33a2.925,2.925,0,0,0-.873-2.108A3.063,3.063,0,0,0,53.9,30.21a2.874,2.874,0,0,0-.769-1.318,2.975,2.975,0,0,0-2.389-.881,3.033,3.033,0,0,0-2.611,2.208,3.029,3.029,0,0,0-1.389-.208A3.077,3.077,0,0,0,44,33.112v5.059a2.99,2.99,0,0,0-1.262-.16A3.077,3.077,0,0,0,40,41.112V51.343a4.972,4.972,0,0,0,1.464,3.535l.657.658A3.017,3.017,0,0,1,43,57.657V61a1,1,0,0,0,1,1H58a1,1,0,0,0,1-1V57.657a3.017,3.017,0,0,1,.88-2.122l.655-.657A4.968,4.968,0,0,0,62,51.343V37a2.925,2.925,0,0,0-.873-2.108A3.057,3.057,0,0,0,58,34.171Zm2,17.172a3.017,3.017,0,0,1-.88,2.122l-.655.657A4.968,4.968,0,0,0,57,57.657V60H45V57.657a4.972,4.972,0,0,0-1.464-3.535l-.657-.658A3.017,3.017,0,0,1,42,51.343V41.112A1.082,1.082,0,0,1,42.907,40,1.011,1.011,0,0,1,44,41v8a1,1,0,0,0,2,0V33.112A1.082,1.082,0,0,1,46.907,32a.975.975,0,0,1,.806.3A.965.965,0,0,1,48,33V43a1,1,0,0,0,2,0V31.112A1.082,1.082,0,0,1,50.907,30a.977.977,0,0,1,.806.3A.965.965,0,0,1,52,31V43a1,1,0,0,0,2,0V33a1,1,0,0,1,1-1,.976.976,0,0,1,.713.306A.965.965,0,0,1,56,33V43a1,1,0,0,0,2,0V37a1,1,0,0,1,1-1,.976.976,0,0,1,.713.306A.965.965,0,0,1,60,37Z"/><path d="M59,2H5A3,3,0,0,0,2,5V27a3,3,0,0,0,3,3,1,1,0,0,0,0-2,1,1,0,0,1-1-1V5A1,1,0,0,1,5,4H59a1,1,0,0,1,1,1V27a1,1,0,0,1-1,1,1,1,0,0,0,0,2,3,3,0,0,0,3-3V5A3,3,0,0,0,59,2Z"/><path d="M42,31H22a1,1,0,0,1,0-2H42a1,1,0,0,1,0,2Z"/><path d="M42,26H22a1,1,0,0,1-1-1V22a1,1,0,0,1,1-1H42a1,1,0,0,1,1,1v3A1,1,0,0,1,42,26ZM23,24H41V23H23Z"/><path d="M49,26H46a1,1,0,0,1-1-1V22a1,1,0,0,1,1-1h3a1,1,0,0,1,1,1v3A1,1,0,0,1,49,26Zm-2-2h1V23H47Z"/><path d="M56,26H53a1,1,0,0,1-1-1V22a1,1,0,0,1,1-1h3a1,1,0,0,1,1,1v3A1,1,0,0,1,56,26Zm-2-2h1V23H54Z"/><path d="M18,26H15a1,1,0,0,1-1-1V22a1,1,0,0,1,1-1h3a1,1,0,0,1,1,1v3A1,1,0,0,1,18,26Zm-2-2h1V23H16Z"/><path d="M11,26H8a1,1,0,0,1-1-1V22a1,1,0,0,1,1-1h3a1,1,0,0,1,1,1v3A1,1,0,0,1,11,26ZM9,24h1V23H9Z"/><path d="M48,19H45a1,1,0,0,1-1-1V15a1,1,0,0,1,1-1h3a1,1,0,0,1,1,1v3A1,1,0,0,1,48,19Zm-2-2h1V16H46Z"/><path d="M55,19H52a1,1,0,0,1-1-1V15a1,1,0,0,1,1-1h3a1,1,0,0,1,1,1v3A1,1,0,0,1,55,19Zm-2-2h1V16H53Z"/><path d="M34,19H31a1,1,0,0,1-1-1V15a1,1,0,0,1,1-1h3a1,1,0,0,1,1,1v3A1,1,0,0,1,34,19Zm-2-2h1V16H32Z"/><path d="M41,19H38a1,1,0,0,1-1-1V15a1,1,0,0,1,1-1h3a1,1,0,0,1,1,1v3A1,1,0,0,1,41,19Zm-2-2h1V16H39Z"/><path d="M13,19H10a1,1,0,0,1-1-1V15a1,1,0,0,1,1-1h3a1,1,0,0,1,1,1v3A1,1,0,0,1,13,19Zm-2-2h1V16H11Z"/><path d="M27,19H24a1,1,0,0,1-1-1V15a1,1,0,0,1,1-1h3a1,1,0,0,1,1,1v3A1,1,0,0,1,27,19Zm-2-2h1V16H25Z"/><path d="M20,19H17a1,1,0,0,1-1-1V15a1,1,0,0,1,1-1h3a1,1,0,0,1,1,1v3A1,1,0,0,1,20,19Zm-2-2h1V16H18Z"/><path d="M48,12H45a1,1,0,0,1-1-1V8a1,1,0,0,1,1-1h3a1,1,0,0,1,1,1v3A1,1,0,0,1,48,12Zm-2-2h1V9H46Z"/><path d="M55,12H52a1,1,0,0,1-1-1V8a1,1,0,0,1,1-1h3a1,1,0,0,1,1,1v3A1,1,0,0,1,55,12Zm-2-2h1V9H53Z"/><path d="M34,12H31a1,1,0,0,1-1-1V8a1,1,0,0,1,1-1h3a1,1,0,0,1,1,1v3A1,1,0,0,1,34,12Zm-2-2h1V9H32Z"/><path d="M41,12H38a1,1,0,0,1-1-1V8a1,1,0,0,1,1-1h3a1,1,0,0,1,1,1v3A1,1,0,0,1,41,12Zm-2-2h1V9H39Z"/><path d="M13,12H10a1,1,0,0,1-1-1V8a1,1,0,0,1,1-1h3a1,1,0,0,1,1,1v3A1,1,0,0,1,13,12Zm-2-2h1V9H11Z"/><path d="M27,12H24a1,1,0,0,1-1-1V8a1,1,0,0,1,1-1h3a1,1,0,0,1,1,1v3A1,1,0,0,1,27,12Zm-2-2h1V9H25Z"/><path d="M20,12H17a1,1,0,0,1-1-1V8a1,1,0,0,1,1-1h3a1,1,0,0,1,1,1v3A1,1,0,0,1,20,12Zm-2-2h1V9H18Z"/></g></svg>
