<svg height="512" viewBox="0 0 64 64" width="512" xmlns="http://www.w3.org/2000/svg"><g id="Programing-3" data-name="Programing"><path d="m14 5h2v2h-2z"/><path d="m18 5h2v2h-2z"/><path d="m22 5h2v2h-2z"/><path d="m57 6h-7v-1a3 3 0 0 0 -3-3h-34a3 3 0 0 0 -3 3v1h-3a5.006 5.006 0 0 0 -5 5v32a5.006 5.006 0 0 0 5 5h17v6h-10a4 4 0 0 0 0 8h36a4 4 0 0 0 0-8h-10v-6h17a5.006 5.006 0 0 0 5-5v-32a5.006 5.006 0 0 0 -5-5zm-7 26h1a2 2 0 0 1 0 4h-1zm0 6h1a4 4 0 0 0 0-8h-1v-18h6v28h-6zm-38-33a1 1 0 0 1 1-1h34a1 1 0 0 1 1 1v3h-36zm0 5h36v20h-27a1 1 0 0 0 -.447.105l-6 3a1 1 0 0 0 0 1.79l6 3a1 1 0 0 0 .447.105h27v2h-36zm36 22v4h-2v-4zm-22.667 1-1.333-1h20v1zm18.667 2v1h-20l1.333-1zm-20.667-1-2.439 1.829-3.658-1.829 3.658-1.829zm28.667 24a2 2 0 0 1 -2 2h-36a2 2 0 0 1 0-4h36a2 2 0 0 1 2 2zm-26-4v-6h12v6zm34-11a3 3 0 0 1 -3 3h-50a3 3 0 0 1 -3-3v-32a3 3 0 0 1 3-3h3v2h-3a1 1 0 0 0 -1 1v30a1 1 0 0 0 1 1h50a1 1 0 0 0 1-1v-30a1 1 0 0 0 -1-1h-7v-2h7a3 3 0 0 1 3 3zm-50-31v28h-2v-28z"/><path d="m45 12h-30a1 1 0 0 0 -1 1v4a1 1 0 0 0 1 1h30a1 1 0 0 0 1-1v-4a1 1 0 0 0 -1-1zm-1 4h-28v-2h28z"/><path d="m25 28h-10a1 1 0 0 1 -1-1v-6a1 1 0 0 1 1-1h10a1 1 0 0 1 1 1v6a1 1 0 0 1 -1 1zm-9-2h8v-4h-8z"/><path d="m44 23h-15a1 1 0 0 1 0-2h15a1 1 0 0 1 0 2z"/><path d="m44 27h-15a1 1 0 0 1 0-2h15a1 1 0 0 1 0 2z"/></g></svg>