<svg height="512" viewBox="0 0 64 64" width="512" xmlns="http://www.w3.org/2000/svg"><g id="Programing-2" data-name="Programing"><path d="m13 55a4 4 0 1 1 4-4 4 4 0 0 1 -4 4zm0-6a2 2 0 1 0 2 2 2 2 0 0 0 -2-2z"/><path d="m15 62h-4a1 1 0 0 1 -1-1v-2.582l-.123-.051-1.83 1.833a1 1 0 0 1 -1.414 0l-2.833-2.833a1 1 0 0 1 0-1.415l1.831-1.824-.049-.128h-2.582a1 1 0 0 1 -1-1v-4a1 1 0 0 1 1-1h2.582c.017-.042.033-.083.051-.123l-1.833-1.83a1 1 0 0 1 0-1.414l2.83-2.83a1 1 0 0 1 .707-.293 1 1 0 0 1 .708.294l1.822 1.831.133-.053v-2.582a1 1 0 0 1 1-1h4a1 1 0 0 1 1 1v2.582l.129.053 1.822-1.835a1 1 0 0 1 .708-.294 1 1 0 0 1 .707.293l2.83 2.83a1 1 0 0 1 0 1.414l-1.83 1.83c.018.04.034.081.051.123h2.583a1 1 0 0 1 1 1v4a1 1 0 0 1 -1 1h-2.582l-.053.128 1.835 1.828a1 1 0 0 1 0 1.415l-2.83 2.83a1 1 0 0 1 -1.414 0l-1.83-1.83-.126.051v2.582a1 1 0 0 1 -1 1zm-3-2h2v-2.29a1 1 0 0 1 .709-.957 6.051 6.051 0 0 0 1.141-.47 1 1 0 0 1 1.187.17l1.623 1.623 1.414-1.414-1.62-1.614a1 1 0 0 1 -.294-.708 1.039 1.039 0 0 1 .122-.489 5.991 5.991 0 0 0 .471-1.142 1 1 0 0 1 .957-.709h2.29v-2h-2.29a1 1 0 0 1 -.957-.709 5.991 5.991 0 0 0 -.471-1.142 1 1 0 0 1 .171-1.186l1.623-1.623-1.414-1.415-1.613 1.62a1.036 1.036 0 0 1 -1.2.172 6.051 6.051 0 0 0 -1.141-.47 1 1 0 0 1 -.708-.957v-2.29h-2v2.29a1 1 0 0 1 -.709.957 6.051 6.051 0 0 0 -1.141.47 1.037 1.037 0 0 1 -1.2-.172l-1.613-1.62-1.413 1.415 1.623 1.623a1 1 0 0 1 .171 1.186 5.991 5.991 0 0 0 -.471 1.142 1 1 0 0 1 -.957.709h-2.29v2h2.29a1 1 0 0 1 .957.709 5.991 5.991 0 0 0 .471 1.142 1 1 0 0 1 .122.479 1.022 1.022 0 0 1 -.294.718l-1.62 1.614 1.414 1.414 1.623-1.623a1 1 0 0 1 1.187-.17 6.051 6.051 0 0 0 1.141.47 1 1 0 0 1 .709.957z"/><path d="m61 2h-38a1 1 0 0 0 -1 1v4h-4a1 1 0 0 0 -1 1v4h-4a1 1 0 0 0 -1 1v24a1 1 0 0 0 2 0v-23h28v7a1 1 0 0 0 1 1h7v38h-27a1 1 0 0 0 0 2h28a1 1 0 0 0 1-1v-4h4a1 1 0 0 0 1-1v-4h4a1 1 0 0 0 1-1v-48a1 1 0 0 0 -1-1zm-17 18v-4.586l4.586 4.586zm11 35h-3v-34a1 1 0 0 0 -.293-.707l-8-8a1 1 0 0 0 -.707-.293h-24v-3h36zm5-5h-3v-42a1 1 0 0 0 -1-1h-32v-3h36z"/><path d="m27 26h-8a1 1 0 0 1 -1-1v-8a1 1 0 0 1 1-1h8a1 1 0 0 1 1 1v8a1 1 0 0 1 -1 1zm-7-2h6v-6h-6z"/><path d="m30 16h10v2h-10z"/><path d="m30 20h10v2h-10z"/><path d="m30 24h10v2h-10z"/><path d="m27 40h-8a1 1 0 0 1 -1-1v-8a1 1 0 0 1 1-1h8a1 1 0 0 1 1 1v8a1 1 0 0 1 -1 1zm-7-2h6v-6h-6z"/><path d="m30 30h16v2h-16z"/><path d="m30 34h16v2h-16z"/><path d="m30 38h16v2h-16z"/><path d="m27 46h9v2h-9z"/><path d="m27 50h9v2h-9z"/><path d="m27 54h9v2h-9z"/><path d="m43 56a5 5 0 1 1 5-5 5.006 5.006 0 0 1 -5 5zm0-8a3 3 0 1 0 3 3 3 3 0 0 0 -3-3z"/></g></svg>