<svg height="512" viewBox="0 0 64 64" width="512" xmlns="http://www.w3.org/2000/svg"><g id="Responsive-2" data-name="Responsive"><path d="m57 18h-11v-11a5.006 5.006 0 0 0 -5-5h-34a5.006 5.006 0 0 0 -5 5v50a5.006 5.006 0 0 0 5 5h50a5.006 5.006 0 0 0 5-5v-34a5.006 5.006 0 0 0 -5-5zm-17 0h-1a5.006 5.006 0 0 0 -5 5v7h-26v-16h32zm-4 8h24v28h-24zm24-3v1h-24v-1a3 3 0 0 1 3-3h18a3 3 0 0 1 3 3zm-18-5v-5a1 1 0 0 0 -1-1h-34a1 1 0 0 0 -1 1v18a1 1 0 0 0 1 1h27v18h-30v-40l40-.07v8.07zm-35-14h34a3 3 0 0 1 3 3v.93l-40 .07v-1a3 3 0 0 1 3-3zm-3 53v-5h30v5a4.948 4.948 0 0 0 1.026 3h-28.026a3 3 0 0 1 -3-3zm53 3h-18a3 3 0 0 1 -3-3v-1h24v1a3 3 0 0 1 -3 3z"/><path d="m25 5h4v2h-4z"/><path d="m21 5h2v2h-2z"/><path d="m49 21h4v2h-4z"/><path d="m45 21h2v2h-2z"/><path d="m46 57h4v2h-4z"/><path d="m24 53a3 3 0 1 0 3 3 3 3 0 0 0 -3-3zm0 4a1 1 0 1 1 1-1 1 1 0 0 1 -1 1z"/><path d="m25 28a6 6 0 1 0 -6-6 6.006 6.006 0 0 0 6 6zm0-10a4 4 0 1 1 -4 4 4 4 0 0 1 4-4z"/><path d="m57 28h-18a1 1 0 0 0 -1 1v12a1 1 0 0 0 1 1h18a1 1 0 0 0 1-1v-12a1 1 0 0 0 -1-1zm-1 12h-16v-10h16z"/><path d="m48 39a4 4 0 1 0 -4-4 4 4 0 0 0 4 4zm0-6a2 2 0 1 1 -2 2 2 2 0 0 1 2-2z"/><path d="m6 47a1 1 0 0 0 1 1h10a1 1 0 0 0 1-1v-12a1 1 0 0 0 -1-1h-10a1 1 0 0 0 -1 1zm2-11h8v10h-8z"/><path d="m20 36h12v2h-12z"/><path d="m20 40h12v2h-12z"/><path d="m20 44h12v2h-12z"/><path d="m45 44h-6a1 1 0 0 0 -1 1v6a1 1 0 0 0 1 1h6a1 1 0 0 0 1-1v-6a1 1 0 0 0 -1-1zm-1 6h-4v-4h4z"/><path d="m48 45h10v2h-10z"/><path d="m48 49h10v2h-10z"/></g></svg>