<svg height="512" viewBox="0 0 64 64" width="512" xmlns="http://www.w3.org/2000/svg"><path d="m57 2h-50a5.006 5.006 0 0 0 -5 5v36a5.006 5.006 0 0 0 5 5h17v6h-10a4 4 0 0 0 0 8h36a4 4 0 0 0 4-4h3a5.006 5.006 0 0 0 5-5v-46a5.006 5.006 0 0 0 -5-5zm-53 41v-36a3 3 0 0 1 3-3h50a3 3 0 0 1 3 3v6.026a4.954 4.954 0 0 0 -2-.925v-5.101a1 1 0 0 0 -1-1h-50a1 1 0 0 0 -1 1v34a1 1 0 0 0 1 1h27v4h-27a3 3 0 0 1 -3-3zm52-31h-17a5.006 5.006 0 0 0 -5 5v23h-26v-32h48zm-20 8h24v30h-24zm24-2h-24v-1a3 3 0 0 1 3-3h18a3 3 0 0 1 3 3zm-34 30h8v5a5 5 0 0 0 .1 1h-8.1zm25.413 11.413a1.986 1.986 0 0 1 -1.413.587h-36a2 2 0 0 1 0-4h21.026a4.977 4.977 0 0 0 3.974 2h13a1.983 1.983 0 0 1 -.587 1.413zm5.587-3.413h-18a3 3 0 0 1 -3-3v-1h24v1a3 3 0 0 1 -3 3z"/><path d="m49 15h4v2h-4z"/><path d="m45 15h2v2h-2z"/><path d="m46 53h4v2h-4z"/><path d="m57 22h-18a1 1 0 0 0 -1 1v14a1 1 0 0 0 1 1h18a1 1 0 0 0 1-1v-14a1 1 0 0 0 -1-1zm-1 2v10.149l-2.219-2.774a1 1 0 0 0 -1.561 0l-2.163 2.7-4.257-5.675a1.036 1.036 0 0 0 -1.6 0l-4.2 5.6v-10zm-4.5 12-.2-.272 1.7-2.128 1.919 2.4zm-2.5 0h-8l4-5.333z"/><path d="m50 31a3 3 0 1 0 -3-3 3 3 0 0 0 3 3zm0-4a1 1 0 1 1 -1 1 1 1 0 0 1 1-1z"/><path d="m38 43h20v2h-20z"/><path d="m38 46h20v2h-20z"/><path d="m38 40h20v2h-20z"/><path d="m11 26h20a1 1 0 0 0 1-1v-14a1 1 0 0 0 -1-1h-20a1 1 0 0 0 -1 1v14a1 1 0 0 0 1 1zm2.2-2 4.737-5.414 4.07 5.414zm11.88 0 1.92-2.4 1.92 2.4zm4.92-12v10.15l-2.219-2.775a1.036 1.036 0 0 0 -1.562 0l-2.677 3.347-4.742-6.322a1.007 1.007 0 0 0 -.763-.4.977.977 0 0 0 -.789.341l-5.248 6v-10.341z"/><path d="m24 19a3 3 0 1 0 -3-3 3 3 0 0 0 3 3zm0-4a1 1 0 1 1 -1 1 1 1 0 0 1 1-1z"/><path d="m10 31h22v2h-22z"/><path d="m10 34h22v2h-22z"/><path d="m10 28h22v2h-22z"/></svg>