<svg height="512" viewBox="0 0 64 64" width="512" xmlns="http://www.w3.org/2000/svg"><g id="Responsive-3" data-name="Responsive"><path d="m6 5h2v2h-2z"/><path d="m10 5h2v2h-2z"/><path d="m14 5h2v2h-2z"/><path d="m12 14h8v2h-8z"/><path d="m16 30h2v2h-2z"/><path d="m12 18h4v2h-4z"/><path d="m8 26h2v2h-2z"/><path d="m8 14h2v2h-2z"/><path d="m8 18h2v2h-2z"/><path d="m8 22h17v2h-17z"/><path d="m12 26h12v2h-12z"/><path d="m57 18h-3v-13a3 3 0 0 0 -3-3h-46a3 3 0 0 0 -3 3v44a3 3 0 0 0 3 3h29v5a5.006 5.006 0 0 0 5 5h18a5.006 5.006 0 0 0 5-5v-34a5.006 5.006 0 0 0 -5-5zm3 5v1h-24v-1a3 3 0 0 1 3-3h18a3 3 0 0 1 3 3zm-56-18a1 1 0 0 1 1-1h46a1 1 0 0 1 1 1v3h-48zm1 45a1 1 0 0 1 -1-1v-39h48v8h-13a5.006 5.006 0 0 0 -5 5v9a1 1 0 0 0 2 0v-6h24v28h-24v-5.875a1 1 0 0 0 -2 0v1.875zm52 10h-18a3 3 0 0 1 -3-3v-1h24v1a3 3 0 0 1 -3 3z"/><path d="m46 57h4v2h-4z"/><path d="m44 43h8v2h-8z"/><path d="m44 47h7v2h-7z"/><path d="m36.707 39.293-4.95-4.95a1 1 0 1 0 -1.414 1.414l4.243 4.243-4.243 4.243a1 1 0 1 0 1.414 1.414l4.95-4.95a1 1 0 0 0 0-1.414z"/><path d="m31.707 39.293-4.95-4.95a1 1 0 1 0 -1.414 1.414l4.243 4.243-4.243 4.243a1 1 0 1 0 1.414 1.414l4.95-4.95a1 1 0 0 0 0-1.414z"/><path d="m39.586 40-4.243 4.243a1 1 0 1 0 1.414 1.414l4.95-4.95a1 1 0 0 0 0-1.414l-4.95-4.95a1 1 0 1 0 -1.414 1.414z"/><path d="m22 14h7v2h-7z"/><path d="m18 18h11v2h-11z"/><path d="m27 22h2v2h-2z"/><path d="m27 26h2v2h-2z"/><path d="m8 30h6v2h-6z"/><path d="m20 30h9v2h-9z"/><path d="m8 34h6v2h-6z"/><path d="m8 38h2v2h-2z"/><path d="m12 38h6v2h-6z"/><path d="m48 35h8v2h-8z"/><path d="m50 39h2v2h-2z"/><path d="m44 35h2v2h-2z"/><path d="m44 39h4v2h-4z"/><path d="m54 43h2v2h-2z"/><path d="m44 31h2v2h-2z"/><path d="m48 31h8v2h-8z"/><path d="m54 39h2v2h-2z"/></g></svg>