<svg height="512" viewBox="0 0 64 64" width="512" xmlns="http://www.w3.org/2000/svg"><path d="m6 5h2v2h-2z"/><path d="m10 5h2v2h-2z"/><path d="m14 5h2v2h-2z"/><path d="m59 2h-54a3 3 0 0 0 -3 3v44a3 3 0 0 0 3 3h10v-2h-10a1 1 0 0 1 -1-1v-39h56v39a1 1 0 0 1 -1 1h-10v2h10a3 3 0 0 0 3-3v-44a3 3 0 0 0 -3-3zm-55 6v-3a1 1 0 0 1 1-1h54a1 1 0 0 1 1 1v3z"/><path d="m35 62h-6a1 1 0 0 1 -1-1v-3.538a14.886 14.886 0 0 1 -3.4-1.411l-2.5 2.506a1 1 0 0 1 -.707.293 1 1 0 0 1 -.707-.293l-4.24-4.24a1 1 0 0 1 0-1.414l2.503-2.503a14.885 14.885 0 0 1 -1.411-3.4h-3.538a1 1 0 0 1 -1-1v-6a1 1 0 0 1 1-1h3.538a14.885 14.885 0 0 1 1.411-3.4l-2.506-2.5a1 1 0 0 1 0-1.414l4.24-4.24a1.028 1.028 0 0 1 1.414 0l2.503 2.503a14.886 14.886 0 0 1 3.4-1.411v-3.538a1 1 0 0 1 1-1h6a1 1 0 0 1 1 1v3.538a14.9 14.9 0 0 1 3.4 1.411l2.5-2.506a1 1 0 0 1 .707-.293 1 1 0 0 1 .707.293l4.24 4.24a1 1 0 0 1 0 1.414l-2.503 2.503a14.885 14.885 0 0 1 1.411 3.4h3.538a1 1 0 0 1 1 1v6a1 1 0 0 1 -1 1h-3.538a14.885 14.885 0 0 1 -1.411 3.4l2.506 2.5a1 1 0 0 1 0 1.414l-4.24 4.24a1.029 1.029 0 0 1 -1.414 0l-2.503-2.503a14.9 14.9 0 0 1 -3.4 1.411v3.538a1 1 0 0 1 -1 1zm-5-2h4v-3.32a1 1 0 0 1 .785-.976 12.96 12.96 0 0 0 4.225-1.755 1 1 0 0 1 1.247.134l2.353 2.353 2.826-2.826-2.353-2.353a1 1 0 0 1 -.135-1.248 12.9 12.9 0 0 0 1.752-4.223 1 1 0 0 1 .98-.786h3.32v-4h-3.32a1 1 0 0 1 -.977-.786 12.9 12.9 0 0 0 -1.755-4.223 1 1 0 0 1 .135-1.248l2.353-2.353-2.826-2.826-2.353 2.353a1 1 0 0 1 -1.247.134 12.96 12.96 0 0 0 -4.225-1.751 1 1 0 0 1 -.785-.98v-3.32h-4v3.32a1 1 0 0 1 -.785.976 12.96 12.96 0 0 0 -4.225 1.755 1 1 0 0 1 -1.247-.134l-2.353-2.353-2.826 2.826 2.353 2.353a1 1 0 0 1 .135 1.248 12.9 12.9 0 0 0 -1.752 4.223 1 1 0 0 1 -.98.786h-3.32v4h3.32a1 1 0 0 1 .977.786 12.9 12.9 0 0 0 1.755 4.223 1 1 0 0 1 -.135 1.248l-2.353 2.353 2.826 2.826 2.353-2.353a1 1 0 0 1 1.247-.134 12.96 12.96 0 0 0 4.225 1.751 1 1 0 0 1 .785.98z"/><path d="m32 54a11 11 0 1 1 11-11 11.013 11.013 0 0 1 -11 11zm0-20a9 9 0 1 0 9 9 9.01 9.01 0 0 0 -9-9z"/><path d="m28 47a1 1 0 0 1 -.707-.293l-3-3a1 1 0 0 1 0-1.414l3-3a1 1 0 0 1 1.414 1.414l-2.293 2.293 2.293 2.293a1 1 0 0 1 -.707 1.707z"/><path d="m36 47a1 1 0 0 1 -.707-1.707l2.293-2.293-2.293-2.293a1 1 0 0 1 1.414-1.414l3 3a1 1 0 0 1 0 1.414l-3 3a1 1 0 0 1 -.707.293z"/><path d="m31 49a.948.948 0 0 1 -.2-.02 1 1 0 0 1 -.78-1.18l2-10a1 1 0 1 1 1.96.392l-2 10a1 1 0 0 1 -.98.808z"/><path d="m21 26h-14a1 1 0 0 1 -1-1v-12a1 1 0 0 1 1-1h14a1 1 0 0 1 1 1v12a1 1 0 0 1 -1 1zm-13-2h12v-10h-12z"/><path d="m13 32h-6a1 1 0 0 1 0-2h6a1 1 0 0 1 0 2z"/><path d="m13 38h-6a1 1 0 0 1 0-2h6a1 1 0 0 1 0 2z"/><path d="m57 22h-32a1 1 0 0 1 -1-1v-8a1 1 0 0 1 1-1h32a1 1 0 0 1 1 1v8a1 1 0 0 1 -1 1zm-31-2h30v-6h-30z"/><path d="m57 28h-9a1 1 0 0 1 0-2h9a1 1 0 0 1 0 2z"/><path d="m57 34h-6a1 1 0 0 1 0-2h6a1 1 0 0 1 0 2z"/><path d="m57 40h-3a1 1 0 0 1 0-2h3a1 1 0 0 1 0 2z"/><path d="m57 46h-3a1 1 0 0 1 0-2h3a1 1 0 0 1 0 2z"/><path d="m10 44h-3a1 1 0 0 1 0-2h3a1 1 0 0 1 0 2z"/></svg>