<svg height="512" viewBox="0 0 64 64" width="512" xmlns="http://www.w3.org/2000/svg"><path d="m59 38h-10v-4a3 3 0 0 0 -3-3h-13v-5h10a3 3 0 0 0 3-3v-18a3 3 0 0 0 -3-3h-22a3 3 0 0 0 -3 3v18a3 3 0 0 0 3 3h10v5h-13a3 3 0 0 0 -3 3v4h-10a3 3 0 0 0 -3 3v18a3 3 0 0 0 3 3h22a3 3 0 0 0 3-3v-18a3 3 0 0 0 -3-3h-10v-4a1 1 0 0 1 1-1h28a1 1 0 0 1 1 1v4h-10a3 3 0 0 0 -3 3v18a3 3 0 0 0 3 3h22a3 3 0 0 0 3-3v-18a3 3 0 0 0 -3-3zm-38-34h22a1 1 0 0 1 1 1v1h-24v-1a1 1 0 0 1 1-1zm-1 19v-15h24v15a1 1 0 0 1 -1 1h-22a1 1 0 0 1 -1-1zm7 37h-22a1 1 0 0 1 -1-1v-15h24v15a1 1 0 0 1 -1 1zm1-19v1h-24v-1a1 1 0 0 1 1-1h22a1 1 0 0 1 1 1zm9-1h22a1 1 0 0 1 1 1v1h-24v-1a1 1 0 0 1 1-1zm22 20h-22a1 1 0 0 1 -1-1v-15h24v15a1 1 0 0 1 -1 1z"/><path d="m30 10h-7a1 1 0 0 0 -1 1v10a1 1 0 0 0 1 1h7a1 1 0 0 0 1-1v-10a1 1 0 0 0 -1-1zm-1 10h-5v-8h5z"/><path d="m33 11h9v2h-9z"/><path d="m33 15h9v2h-9z"/><path d="m33 19h9v2h-9z"/><path d="m26 45h-20a1 1 0 0 0 -1 1v6a1 1 0 0 0 1 1h20a1 1 0 0 0 1-1v-6a1 1 0 0 0 -1-1zm-1 6h-18v-4h18z"/><path d="m8 48h16v2h-16z"/><path d="m10 54h16v2h-16z"/><path d="m10 57h16v2h-16z"/><path d="m6 54h2v2h-2z"/><path d="m6 57h2v2h-2z"/><path d="m46 46h-7a1 1 0 0 0 -1 1v4a1 1 0 0 0 1 1h7a1 1 0 0 0 1-1v-4a1 1 0 0 0 -1-1zm-1 4h-5v-2h5z"/><path d="m57 46h-7a1 1 0 0 0 -1 1v4a1 1 0 0 0 1 1h7a1 1 0 0 0 1-1v-4a1 1 0 0 0 -1-1zm-1 4h-5v-2h5z"/><path d="m38 53h9v2h-9z"/><path d="m38 56h9v2h-9z"/><path d="m49 53h9v2h-9z"/><path d="m49 56h9v2h-9z"/></svg>